<svg width="26" height="19" viewBox="0 0 26 19" fill="none" xmlns="http://www.w3.org/2000/svg">
<path d="M6.178 4.731C6.09831 4.63311 5.9976 4.55441 5.88334 4.50075C5.76909 4.44709 5.64422 4.41983 5.518 4.421H0.16C0.138598 4.42198 0.117227 4.41849 0.0972531 4.41074C0.077279 4.40299 0.0591415 4.39116 0.044 4.376C0.0301557 4.36322 0.0190341 4.34777 0.0113017 4.33059C0.00356932 4.31341 -0.000614822 4.29484 -0.001 4.276V0.64C-0.000614822 0.621161 0.00356932 0.602594 0.0113017 0.585411C0.0190341 0.568228 0.0301557 0.552782 0.044 0.54C0.0590552 0.524663 0.0771539 0.512647 0.097132 0.504724C0.11711 0.496802 0.138525 0.493149 0.16 0.494H5.82C7.248 0.494 8.48 1.082 9.516 2.258L10.891 3.948L8.213 7.24L6.178 4.731ZM16.07 2.24C17.106 1.076 18.344 0.494 19.785 0.494H25.427C25.475 0.494 25.51 0.506 25.534 0.53C25.558 0.555 25.57 0.591 25.57 0.64V4.276C25.57 4.313 25.558 4.346 25.534 4.376C25.51 4.406 25.474 4.422 25.427 4.422H20.07C19.9439 4.42071 19.819 4.44781 19.7048 4.5013C19.5905 4.55479 19.4898 4.63329 19.41 4.731L15.463 9.568L19.427 14.441C19.5068 14.5331 19.6056 14.6068 19.7166 14.657C19.8276 14.7073 19.9482 14.7328 20.07 14.732H25.427C25.475 14.732 25.51 14.747 25.534 14.778C25.558 14.808 25.57 14.848 25.57 14.896V18.532C25.57 18.569 25.558 18.602 25.534 18.632C25.51 18.662 25.474 18.678 25.427 18.678H19.785C18.345 18.678 17.112 18.09 16.088 16.914L12.803 12.877L9.517 16.914C8.481 18.09 7.243 18.678 5.803 18.678H0.161C0.113 18.678 0.077 18.663 0.053 18.632C0.0281338 18.5979 0.0157753 18.5562 0.018 18.514V14.877C0.018 14.841 0.029 14.807 0.053 14.777C0.077 14.747 0.113 14.732 0.161 14.732H5.517C5.767 14.732 5.987 14.629 6.178 14.422L10.053 9.658L16.07 2.24Z" fill="#00D1FF"/>
</svg>
